<svg width="19" height="22" viewBox="0 0 19 22" fill="none" xmlns="http://www.w3.org/2000/svg">
<path d="M18.12 16.89V16.83L17.19 15.18C16.5832 14.0914 16.2631 12.8663 16.26 11.62V9.62C16.2639 8.22309 15.875 6.85321 15.1377 5.66674C14.4003 4.48028 13.3442 3.52501 12.09 2.91C12.0153 2.13276 11.6608 1.40912 11.0923 0.873801C10.5239 0.33848 9.78032 0.0279452 8.99999 0C8.20789 0.0348623 7.45628 0.35985 6.88831 0.913069C6.32033 1.46629 5.97568 2.20909 5.91999 3C4.74233 3.59122 3.75214 4.49809 3.05994 5.61938C2.36774 6.74067 2.00077 8.03226 1.99999 9.35V11.63C1.99777 12.872 1.68128 14.0932 1.07999 15.18L0.0799925 16.94C-0.0223942 17.2085 -0.0559024 17.4983 -0.0174725 17.783C0.0209574 18.0677 0.130101 18.3383 0.299993 18.57C0.459648 18.8078 0.675525 19.0024 0.928468 19.1368C1.18141 19.2711 1.4636 19.3409 1.74999 19.34H5.74999C6.08882 19.9198 6.58559 20.3913 7.18231 20.6994C7.77903 21.0075 8.45107 21.1395 9.11999 21.08C9.79053 21.1415 10.4647 21.0104 11.0634 20.7022C11.6621 20.394 12.1604 19.9215 12.5 19.34H16.5C16.797 19.3491 17.0912 19.2811 17.3541 19.1426C17.617 19.0042 17.8395 18.8 18 18.55C18.1562 18.305 18.249 18.025 18.27 17.7352C18.2909 17.4454 18.2394 17.1549 18.12 16.89ZM16.72 17.73C16.6991 17.7642 16.6697 17.7923 16.6346 17.8116C16.5995 17.8309 16.56 17.8407 16.52 17.84H1.74999C1.70862 17.8405 1.66778 17.8307 1.63112 17.8115C1.59447 17.7923 1.56316 17.7643 1.53999 17.73C1.51309 17.683 1.4929 17.6326 1.47999 17.58L2.40999 15.91C3.13781 14.6009 3.51984 13.1278 3.51999 11.63V9.35C3.52264 7.86295 4.11454 6.43756 5.16604 5.38605C6.21755 4.33454 7.64294 3.74264 9.12999 3.74H9.29999C9.88251 3.76638 10.4568 3.88799 11 4.1H11.06C12.1412 4.55208 13.0636 5.3154 13.7099 6.29294C14.3563 7.27048 14.6974 8.41812 14.69 9.59V11.59C14.6911 13.0966 15.0802 14.5775 15.82 15.89L16.71 17.49C16.736 17.5242 16.7509 17.5655 16.7527 17.6084C16.7545 17.6513 16.7431 17.6938 16.72 17.73Z" fill="#666666"/>
</svg>
