<?xml version="1.0" encoding="utf-8"?>
<!-- (c) Livemaster LLC - https://livemaster.ru -->
<!DOCTYPE svg PUBLIC "-//W3C//DTD SVG 1.1//EN" "http://www.w3.org/Graphics/SVG/1.1/DTD/svg11.dtd">
<svg xmlns="http://www.w3.org/2000/svg" viewBox="0 0 15 13.15">
	<title>favourie-regular</title>
	<path fill="#f14a47" d="M7.45,13.15,2.26,8.8A6.25,6.25,0,0,1,.16,5.56,3.87,3.87,0,0,1,0,4,4.3,4.3,0,0,1,4.31,0,4.21,4.21,0,0,1,7.47,1.39,4.34,4.34,0,0,1,15,4a4,4,0,0,1-.13,1.55,6.26,6.26,0,0,1-2.1,3.24ZM4.31,1A3.33,3.33,0,0,0,1,4.13a3,3,0,0,0,.11,1.19A5.27,5.27,0,0,0,2.9,8l4.56,3.81L12.1,8a5.27,5.27,0,0,0,1.77-2.72A3,3,0,0,0,14,4.16v0a3.33,3.33,0,0,0-6.1-1.64l-.42.65L7,2.48A3.2,3.2,0,0,0,4.31,1Z"/>
</svg>
