<svg width="24" height="24" viewBox="0 0 24 24" fill="none" xmlns="http://www.w3.org/2000/svg">
<path d="M12.0058 -4.45872e-08C9.63031 -0.00230974 7.30749 0.700151 5.33135 2.01848C3.35521 3.33681 1.81458 5.21175 0.904442 7.40601C-0.0056986 9.60026 -0.244439 12.0152 0.218437 14.3452C0.681313 16.6752 1.825 18.8155 3.50475 20.4952C5.1845 22.175 7.3248 23.3187 9.6548 23.7816C11.9848 24.2444 14.3997 24.0057 16.594 23.0955C18.7882 22.1854 20.6632 20.6448 21.9815 18.6686C23.2998 16.6925 24.0023 14.3697 24 11.9942C23.9938 8.81501 22.7282 5.76783 20.4802 3.51983C18.2322 1.27182 15.185 0.00617308 12.0058 -4.45872e-08V-4.45872e-08ZM12.0058 22.2482C9.97728 22.2505 7.99363 21.6511 6.30583 20.5257C4.61803 19.4004 3.30193 17.7998 2.52403 15.9263C1.74614 14.0528 1.54141 11.9907 1.93574 10.0009C2.33008 8.01102 3.30575 6.18283 4.73934 4.74762C6.17292 3.3124 7.99999 2.33464 9.98939 1.93804C11.9788 1.54144 14.0411 1.74382 15.9155 2.51957C17.7898 3.29533 19.392 4.60961 20.5192 6.29612C21.6465 7.98264 22.2482 9.96561 22.2482 11.9942C22.2451 14.7107 21.1654 17.3153 19.2456 19.2373C17.3257 21.1593 14.7224 22.242 12.0058 22.2482V22.2482Z" fill="#666666"/>
<path d="M6.6803 9.51825C6.68908 9.15842 6.82739 8.81385 7.06982 8.54781C7.31226 8.28178 7.64254 8.11215 8 8.07007C8.36168 8.10687 8.69756 8.27421 8.94476 8.54077C9.19197 8.80732 9.33358 9.15483 9.34307 9.51825C9.36599 9.732 9.46673 9.92987 9.6261 10.0742C9.78546 10.2184 9.99233 10.2991 10.2073 10.3007H10.3124C10.5366 10.2687 10.7398 10.1511 10.8791 9.97253C11.0185 9.79397 11.0833 9.56836 11.0599 9.34307C11.0094 8.55142 10.6698 7.80591 10.1057 7.24824C9.54155 6.69056 8.79218 6.3596 8 6.31825C7.20783 6.3596 6.45846 6.69056 5.89433 7.24824C5.33019 7.80591 4.99062 8.55142 4.94015 9.34307C4.91898 9.5712 4.98804 9.79854 5.13252 9.97635C5.277 10.1542 5.48539 10.2683 5.71302 10.2943C5.94066 10.3202 6.1694 10.256 6.35022 10.1153C6.53104 9.97458 6.64953 9.76864 6.6803 9.54161V9.51825Z" fill="#666666"/>
<path d="M16.1168 6.31825C15.3258 6.35986 14.5779 6.69124 14.0156 7.24915C13.4534 7.80706 13.1163 8.55244 13.0686 9.34307C13.054 9.45758 13.0625 9.57385 13.0935 9.68504C13.1246 9.79622 13.1776 9.90005 13.2494 9.9904C13.3213 10.0808 13.4105 10.1558 13.5118 10.2111C13.6132 10.2664 13.7245 10.3009 13.8394 10.3124C14.0696 10.3356 14.2997 10.268 14.4807 10.124C14.6618 9.98003 14.7795 9.77107 14.8088 9.54161C14.8116 9.17951 14.9457 8.83074 15.1863 8.56009C15.4269 8.28945 15.7575 8.11533 16.1168 8.07007C16.4742 8.11215 16.8045 8.28178 17.047 8.54781C17.2894 8.81385 17.4277 9.15842 17.4365 9.51825C17.4621 9.733 17.5652 9.93101 17.7265 10.0751C17.8878 10.2192 18.0961 10.2994 18.3124 10.3007H18.4058C18.5196 10.2891 18.6299 10.255 18.7304 10.2005C18.8309 10.1459 18.9195 10.0719 18.9912 9.98286C19.0629 9.89378 19.1162 9.79137 19.148 9.68154C19.1799 9.57172 19.1896 9.45667 19.1766 9.34307C19.1287 8.55054 18.7899 7.80359 18.2253 7.24541C17.6606 6.68722 16.9098 6.35707 16.1168 6.31825V6.31825Z" fill="#666666"/>
<path d="M17.4365 13.7343C17.3308 13.6857 17.2165 13.6587 17.1003 13.6548C16.9841 13.6508 16.8682 13.6701 16.7595 13.7114C16.6508 13.7527 16.5514 13.8152 16.4671 13.8954C16.3828 13.9755 16.3153 14.0716 16.2686 14.1781C15.8482 15.1124 14.2949 16.0701 12.1343 16.0701C9.97371 16.0701 8.42042 15.1124 8.01166 14.1781C7.91408 13.9708 7.73916 13.81 7.52442 13.7302C7.30967 13.6503 7.07219 13.6578 6.86289 13.751C6.65359 13.8442 6.48914 14.0157 6.40479 14.2287C6.32044 14.4417 6.3229 14.6793 6.41166 14.8905C7.19414 16.6423 9.49488 17.8219 12.1343 17.8219C14.7737 17.8219 17.0861 16.654 17.8686 14.8905C17.9638 14.6798 17.9717 14.44 17.8908 14.2234C17.8098 14.0068 17.6465 13.831 17.4365 13.7343V13.7343Z" fill="#666666"/>
</svg>
