<?xml version="1.0" encoding="utf-8"?>
<!-- (c) Livemaster LLC - https://livemaster.ru -->
<!DOCTYPE svg PUBLIC "-//W3C//DTD SVG 1.1//EN" "http://www.w3.org/Graphics/SVG/1.1/DTD/svg11.dtd">
<svg viewBox="0 0 305 44" fill="none" xmlns="http://www.w3.org/2000/svg">
	<path d="M235.41 13.0699H236.41V5.13989H235.41V13.0699ZM238.41 6.29989H239.41V5.13989H238.41V6.29989ZM238.41 13.0699H239.41V7.31989H238.41V13.0699ZM243.59 12.1499L242 7.31989H240.93L243.08 13.0699H244.08L246.2 7.31989H245.2L243.59 12.1499ZM249.85 7.14989C248.25 7.14989 247.16 8.40989 247.16 10.2699C247.16 12.1299 248.16 13.2699 249.89 13.2699C250.486 13.3195 251.078 13.1403 251.546 12.7687C252.014 12.3972 252.323 11.8612 252.41 11.2699H251.48C251.421 11.6329 251.228 11.9606 250.939 12.1883C250.65 12.416 250.287 12.5272 249.92 12.4999C249.662 12.5132 249.404 12.469 249.166 12.3704C248.927 12.2718 248.713 12.1213 248.54 11.9298C248.367 11.7383 248.238 11.5106 248.164 11.2633C248.089 11.016 248.071 10.7552 248.11 10.4999V10.4299H252.46V10.2999C252.5 8.65989 251.78 7.15989 249.87 7.15989L249.85 7.14989ZM248.12 9.67989C248.117 9.22184 248.295 8.78119 248.615 8.45357C248.936 8.12595 249.372 7.93778 249.83 7.92989C250.056 7.92956 250.279 7.97529 250.487 8.06428C250.694 8.15328 250.881 8.28366 251.037 8.44747C251.192 8.61128 251.313 8.80506 251.39 9.01697C251.468 9.22887 251.502 9.45445 251.49 9.67989H248.12ZM260.47 7.15989C260.091 7.14789 259.715 7.23358 259.379 7.4087C259.043 7.58383 258.757 7.84252 258.55 8.15989C258.428 7.84233 258.206 7.57309 257.917 7.39273C257.628 7.21237 257.289 7.13066 256.95 7.15989C256.575 7.14722 256.203 7.23285 255.872 7.40828C255.54 7.5837 255.26 7.84282 255.06 8.15989V7.31989H254.16V13.0699H255.16V9.99989C255.16 8.91989 255.45 7.99989 256.73 7.99989C257.65 7.99989 257.8 8.59989 257.8 9.35989V13.0499H258.8V9.80989C258.8 8.74989 259.19 8.01989 260.28 8.01989C261.37 8.01989 261.43 8.63989 261.43 9.45989V13.0799H262.43V9.07989C262.472 8.8168 262.451 8.54738 262.368 8.29415C262.285 8.04092 262.143 7.81123 261.953 7.62426C261.763 7.4373 261.531 7.2985 261.277 7.21946C261.022 7.14041 260.752 7.12342 260.49 7.16989L260.47 7.15989ZM268.83 11.7699C268.83 10.9099 268.83 10.0699 268.83 9.20989C268.867 8.94808 268.851 8.6816 268.784 8.42584C268.717 8.17009 268.6 7.93015 268.44 7.71989C267.922 7.31839 267.275 7.11934 266.62 7.15989C265.13 7.15989 264.23 7.87989 264.2 9.10989H265.13C265.22 8.25989 265.68 7.93989 266.57 7.93989C267.46 7.93989 267.88 8.26989 267.88 8.88989C267.88 9.66989 267.41 9.63989 266.03 9.79989C264.65 9.95989 264 10.5799 264 11.5999C264 12.6199 264.71 13.2299 265.85 13.2299C266.246 13.2492 266.642 13.1772 267.006 13.0194C267.37 12.8617 267.693 12.6223 267.95 12.3199C267.938 12.4337 267.951 12.5488 267.988 12.6569C268.026 12.765 268.087 12.8633 268.168 12.9448C268.248 13.0262 268.346 13.0886 268.453 13.1276C268.561 13.1665 268.676 13.181 268.79 13.1699C269.012 13.1724 269.232 13.1352 269.44 13.0599V12.3299C269.364 12.3387 269.286 12.3387 269.21 12.3299C269 12.3499 268.85 12.1999 268.85 11.7799L268.83 11.7699ZM267.92 11.1199C267.92 11.8499 267.06 12.4699 266.16 12.4699C265.44 12.4699 265 12.0999 265 11.4699C265 10.5499 265.94 10.4699 266.64 10.3799C267.089 10.3732 267.53 10.2528 267.92 10.0299V11.1199ZM273.32 9.63989C272.53 9.45989 271.78 9.35989 271.78 8.70989C271.78 8.22989 272.23 7.92989 272.96 7.92989C273.69 7.92989 274.31 8.21989 274.37 8.92989H275.37C275.37 7.70989 274.37 7.08989 273.06 7.08989C271.75 7.08989 270.85 7.74989 270.85 8.77989C270.85 10.1099 272.18 10.2299 273.18 10.4699C273.99 10.6699 274.64 10.7999 274.64 11.4699C274.64 12.1399 274.08 12.4699 273.23 12.4699C272.38 12.4699 271.71 12.1199 271.66 11.2599H270.72C270.78 12.5499 271.64 13.2599 273.21 13.2599C274.78 13.2599 275.61 12.5299 275.61 11.4099C275.61 10.2899 274.32 9.87989 273.35 9.64989L273.32 9.63989ZM278.61 5.63989H277.61V7.33989H276.61V8.09989H277.61V11.1499C277.61 12.4099 277.54 13.1499 278.99 13.1499C279.233 13.1664 279.477 13.1664 279.72 13.1499V12.3399C279.547 12.3506 279.373 12.3506 279.2 12.3399C278.53 12.3399 278.56 12.0199 278.56 11.4899V8.09989H279.71V7.31989H278.56V5.61989L278.61 5.63989ZM283.67 7.17989C282.07 7.17989 280.98 8.43989 280.98 10.2999C280.98 12.1599 281.98 13.2999 283.71 13.2999C284.306 13.3495 284.898 13.1703 285.366 12.7987C285.834 12.4272 286.143 11.8912 286.23 11.2999H285.3C285.241 11.6629 285.048 11.9906 284.759 12.2183C284.47 12.446 284.107 12.5572 283.74 12.5299C283.482 12.5432 283.224 12.499 282.986 12.4004C282.747 12.3018 282.533 12.1513 282.36 11.9598C282.187 11.7683 282.058 11.5406 281.984 11.2933C281.909 11.046 281.891 10.7852 281.93 10.5299V10.4599H286.28V10.3299C286.32 8.65989 285.6 7.15989 283.7 7.15989L283.67 7.17989ZM282 9.68989C281.997 9.23184 282.175 8.7912 282.495 8.46357C282.816 8.13595 283.252 7.94778 283.71 7.93989C283.936 7.93956 284.159 7.98529 284.367 8.07428C284.574 8.16328 284.761 8.29366 284.917 8.45747C285.072 8.62128 285.193 8.81506 285.27 9.02697C285.348 9.23887 285.382 9.46445 285.37 9.68989H282ZM288.93 8.56989V7.31989H288V13.0699H289V10.6399C289 9.34989 289.28 8.15989 290.85 8.15989H291V7.15989C290.545 7.13245 290.094 7.25438 289.715 7.50711C289.336 7.75985 289.05 8.12953 288.9 8.55989L288.93 8.56989ZM291.79 13.0799H293V11.8399H291.76L291.79 13.0799ZM296 8.55989V7.31989H295.09V13.0699H296.09V10.6399C296.09 9.34989 296.37 8.15989 297.94 8.15989H298.19V7.15989C297.721 7.1117 297.249 7.22384 296.851 7.47804C296.453 7.73224 296.153 8.11355 296 8.55989ZM303.41 7.31989V10.3199C303.41 11.4999 302.97 12.3899 301.72 12.3899C300.72 12.3899 300.51 11.8299 300.51 11.0099V7.31989H299.51V11.3199C299.48 11.5815 299.509 11.8464 299.596 12.0952C299.682 12.3439 299.823 12.5702 300.008 12.7573C300.193 12.9444 300.418 13.0876 300.666 13.1763C300.914 13.265 301.178 13.297 301.44 13.2699C301.837 13.2836 302.231 13.193 302.582 13.007C302.933 12.821 303.229 12.5461 303.44 12.2099V13.1099H304.33V7.31989H303.41Z" fill="#807E79"/>
	<path d="M230 21.5599H234.88V33.1099H237.04V21.5599H242V19.5599H230V21.5599ZM304.25 27.8999C304.021 27.3797 303.666 26.9246 303.218 26.5755C302.769 26.2264 302.241 25.9942 301.68 25.8999C302.077 25.813 302.448 25.6361 302.765 25.383C303.082 25.1298 303.337 24.8072 303.51 24.4399C303.738 23.8729 303.811 23.2554 303.722 22.6507C303.632 22.0461 303.383 21.4763 303 20.9999C301.82 19.5099 298.7 19.6199 298.7 19.6199H292.87V33.0999H299.63C301.027 33.2053 302.414 32.7963 303.53 31.9499C304.031 31.4184 304.368 30.7536 304.501 30.0354C304.634 29.3171 304.558 28.5757 304.28 27.8999H304.25ZM295.03 21.2799H298.71C298.71 21.2799 301.61 21.1999 301.53 23.2799C301.45 25.3599 299 25.1999 299 25.1999H295.09L295.03 21.2799ZM301.3 30.9099C300.644 31.1919 299.933 31.3218 299.22 31.2899H295.04V26.8799H298.86C298.86 26.8799 301.5 26.7899 302.15 28.2599C302.272 28.4867 302.347 28.7353 302.371 28.9914C302.396 29.2475 302.369 29.5059 302.293 29.7516C302.216 29.9973 302.092 30.2253 301.927 30.4225C301.761 30.6196 301.559 30.7819 301.33 30.8999L301.3 30.9099ZM148.66 25.2399C151.78 23.5499 151.56 19.0599 151.56 19.0599H149.47C149.47 19.0599 149.52 21.4899 148.54 22.7099C148.125 23.2936 147.585 23.7764 146.958 24.1227C146.331 24.4689 145.635 24.6696 144.92 24.7099C143.48 24.7699 142.51 24.7099 142.08 24.7099V19.0599H139.85V32.5399H142.08V26.5399H143.55C144.22 26.5455 144.889 26.492 145.55 26.3799L149.77 32.5899H152.43L147.62 25.7599C148 25.5699 148.31 25.4199 148.66 25.2399ZM82.2801 18.6799C79.3901 18.6799 78.0901 19.7799 77.1301 21.2299C77.1301 20.9499 77.1301 19.5799 76.1301 19.1399C75.2965 18.8761 74.4122 18.8144 73.5501 18.9599V20.5799C73.7555 20.5284 73.9704 20.5275 74.1762 20.5772C74.3821 20.627 74.5728 20.7259 74.7321 20.8655C74.8914 21.0051 75.0144 21.1812 75.0907 21.3788C75.167 21.5764 75.1942 21.7895 75.1701 21.9999C75.1701 22.1299 75.1701 22.2299 75.1701 22.3199V39.4499H77.4001V31.1899C77.4701 31.1899 77.4001 31.1899 77.4001 31.1899C78.6888 32.0335 80.1812 32.5137 81.7201 32.5799C82.99 32.6032 84.2391 32.255 85.3139 31.5782C86.3887 30.9013 87.2423 29.9253 87.7701 28.7699C88.2299 27.6312 88.4393 26.4069 88.384 25.1801C88.3288 23.9533 88.0103 22.7527 87.4501 21.6599C86.9532 20.7294 86.2054 19.9569 85.2915 19.4302C84.3776 18.9034 83.3343 18.6435 82.2801 18.6799ZM85.4901 28.4699C85.0784 29.1628 84.4926 29.7359 83.7909 30.1324C83.0892 30.5289 82.296 30.7348 81.4901 30.7299C80.0332 30.6723 78.6252 30.1891 77.4401 29.3399L77.3601 29.2799V25.0499C77.3711 24.8283 77.3978 24.6078 77.4401 24.3899C77.6225 23.2508 78.2124 22.2167 79.1001 21.4799C79.7126 21.0472 80.4197 20.767 81.1624 20.6626C81.9051 20.5582 82.662 20.6327 83.3701 20.8799C84.1056 21.1576 84.75 21.6334 85.2318 22.2547C85.7137 22.8759 86.0142 23.6184 86.1001 24.3999C86.2899 25.7838 86.0782 27.193 85.4901 28.4599V28.4699ZM131.17 18.6799C128.29 18.6799 126.98 19.7799 126.02 21.2299C126.02 20.9499 126.02 19.5799 125.02 19.1399C124.186 18.8768 123.302 18.8152 122.44 18.9599V20.5799C122.645 20.5304 122.859 20.5309 123.063 20.5815C123.268 20.6321 123.457 20.7313 123.615 20.8707C123.773 21.01 123.895 21.1855 123.971 21.382C124.046 21.5786 124.074 21.7906 124.05 21.9999C124.05 22.1299 124.05 22.2299 124.05 22.3199V39.4499H126.28V31.1899C126.35 31.1899 126.28 31.1899 126.28 31.1899C127.569 32.0335 129.061 32.5137 130.6 32.5799C131.87 32.6032 133.119 32.255 134.194 31.5782C135.269 30.9013 136.122 29.9253 136.65 28.7699C137.109 27.6311 137.318 26.4068 137.263 25.1801C137.208 23.9534 136.89 22.7529 136.33 21.6599C135.834 20.731 135.088 19.9595 134.176 19.4329C133.264 18.9062 132.223 18.6454 131.17 18.6799ZM134.38 28.4699C133.968 29.1628 133.383 29.7359 132.681 30.1324C131.979 30.5289 131.186 30.7348 130.38 30.7299C128.923 30.6717 127.516 30.1885 126.33 29.3399L126.24 29.2799V25.0499C126.254 24.8281 126.284 24.6075 126.33 24.3899C126.515 23.2494 127.109 22.2151 128 21.4799C128.613 21.0472 129.32 20.767 130.062 20.6626C130.805 20.5582 131.562 20.6327 132.27 20.8799C133.006 21.1576 133.65 21.6334 134.132 22.2547C134.614 22.8759 134.914 23.6184 135 24.3999C135.187 25.7847 134.972 27.194 134.38 28.4599V28.4699ZM267.2 19.2899C264.31 19.2899 263.01 20.3999 262.05 21.8399C262.05 21.5599 262.05 20.1899 261.05 19.7499C260.214 19.4823 259.326 19.4172 258.46 19.5599V21.1799C258.667 21.123 258.884 21.1175 259.093 21.1641C259.302 21.2106 259.497 21.3077 259.659 21.4469C259.822 21.586 259.948 21.763 260.027 21.9623C260.106 22.1616 260.134 22.3771 260.11 22.5899C260.11 22.7199 260.11 22.8299 260.11 22.9099V40.0999H262.34V31.8299C262.41 31.8299 262.34 31.8299 262.34 31.8299C263.629 32.6735 265.121 33.1537 266.66 33.2199C267.933 33.243 269.184 32.8937 270.261 32.2151C271.337 31.5364 272.192 30.5579 272.72 29.3999C273.18 28.2577 273.389 27.0302 273.334 25.8002C273.278 24.5702 272.96 23.3664 272.4 22.2699C271.901 21.3321 271.147 20.5541 270.225 20.0252C269.304 19.4963 268.252 19.238 267.19 19.2799L267.2 19.2899ZM270.41 29.0999C269.998 29.7921 269.412 30.3647 268.71 30.7611C268.009 31.1574 267.216 31.3639 266.41 31.3599C264.939 31.3221 263.512 30.8488 262.31 29.9999L262.22 29.9499V25.6799C262.233 25.4546 262.263 25.2307 262.31 25.0099C262.499 23.8632 263.1 22.8249 264 22.0899C264.613 21.6572 265.32 21.377 266.062 21.2726C266.805 21.1682 267.562 21.2427 268.27 21.4899C269.004 21.7678 269.646 22.2424 270.128 22.8615C270.61 23.4807 270.911 24.2206 271 24.9999C271.198 26.3926 270.99 27.8129 270.4 29.0899L270.41 29.0999ZM249.41 19.3599C247.836 19.3887 246.322 19.9691 245.133 20.9998C243.943 22.0305 243.153 23.4462 242.9 24.9999C242.557 26.4935 242.736 28.0596 243.407 29.4371C244.079 30.8147 245.202 31.9204 246.59 32.5699C249.27 33.9799 253.59 33.0499 254.59 32.6299L255.59 32.1999L255.24 30.5999C253.649 31.2318 251.952 31.551 250.24 31.5399C249.249 31.5788 248.267 31.3318 247.413 30.8282C246.558 30.3246 245.866 29.5858 245.42 28.6999C245.154 28.0393 245.021 27.3322 245.03 26.6199H256.03C256.03 26.6199 256.57 23.2299 255.2 21.5499C253.83 19.8699 252.23 19.2499 249.44 19.3499L249.41 19.3599ZM254.08 24.9199H245.08C245.168 24.3204 245.378 23.7452 245.696 23.2294C246.014 22.7136 246.434 22.2681 246.93 21.9199C247.731 21.4296 248.643 21.1488 249.582 21.1034C250.52 21.0579 251.455 21.2493 252.3 21.6599C252.893 21.9596 253.383 22.4306 253.706 23.0118C254.029 23.5931 254.169 24.2578 254.11 24.9199H254.08ZM283.08 19.3099C282.133 19.2531 281.184 19.3931 280.294 19.721C279.404 20.049 278.591 20.5578 277.907 21.2155C277.223 21.8731 276.683 22.6653 276.32 23.5421C275.957 24.4189 275.78 25.3613 275.8 26.3099C275.8 30.1899 278.5 33.3099 283.08 33.3099C287.66 33.3099 290.36 30.1699 290.36 26.3099C290.36 22.4499 287.65 19.3099 283.13 19.3099H283.08ZM283.08 31.4799C282.4 31.5076 281.723 31.3927 281.09 31.1424C280.458 30.8922 279.885 30.5123 279.408 30.0271C278.931 29.5419 278.561 28.9623 278.322 28.3255C278.083 27.6887 277.98 27.0089 278.02 26.3299C278.02 24.9879 278.553 23.7009 279.502 22.752C280.451 21.803 281.738 21.2699 283.08 21.2699C284.422 21.2699 285.709 21.803 286.658 22.752C287.607 23.7009 288.14 24.9879 288.14 26.3299C288.181 27.0041 288.08 27.6793 287.845 28.3125C287.611 28.9457 287.246 29.523 286.776 30.0076C286.305 30.4922 285.739 30.8734 285.113 31.1269C284.487 31.3804 283.815 31.5006 283.14 31.4799H283.08ZM91.0001 18.1499V32.3999H93.1501V23.5799L98.0301 29.2499L102.91 23.5799V32.3999H105.06V18.1499L98.0601 26.3199L91.0001 18.1499ZM120.49 31.1499C119.74 31.0799 119.71 29.8999 119.71 29.8999V22.8999C119.71 20.0999 116.95 18.7499 113.76 18.7499C112.037 18.6771 110.322 19.0201 108.76 19.7499L109.19 21.4799C111.115 20.4718 113.346 20.2151 115.45 20.7599C116.03 20.8154 116.574 21.0679 116.991 21.4755C117.407 21.883 117.672 22.4211 117.74 22.9999V25.2399C117.23 24.9721 116.694 24.7576 116.14 24.5999C115.23 24.3299 112.06 23.8599 109.94 24.9799C109.216 25.3763 108.625 25.9756 108.237 26.7041C107.85 27.4325 107.684 28.2584 107.76 29.0799C107.76 29.9299 108.47 32.6799 112.69 32.6799C116.91 32.6799 118.09 30.0199 118.09 30.0199C118.09 30.0199 118.09 31.8099 118.95 32.3299C119.755 32.6438 120.631 32.7269 121.48 32.5699V31.1299C121.161 31.1584 120.839 31.1584 120.52 31.1299L120.49 31.1499ZM117.7 27.8999C117.572 28.4322 117.318 28.9261 116.96 29.3399C115.804 30.3728 114.3 30.9301 112.75 30.8999C110.81 30.8999 109.94 29.8999 109.94 28.5799C109.94 27.4099 110.86 26.1099 113.3 26.0499C114.823 25.9826 116.338 26.3062 117.7 26.9899V27.9099V27.8999ZM166.64 31.1499C165.88 31.0799 165.86 29.8999 165.86 29.8999V22.8999C165.86 20.0999 163.11 18.7499 159.93 18.7499C158.207 18.6751 156.492 19.0182 154.93 19.7499L155.36 21.4799C157.279 20.474 159.503 20.2174 161.6 20.7599C162.182 20.8117 162.727 21.0631 163.145 21.4713C163.562 21.8796 163.825 22.4197 163.89 22.9999V25.2399C163.388 24.9698 162.858 24.7552 162.31 24.5999C161.4 24.3299 158.23 23.8599 156.12 24.9799C155.396 25.3763 154.805 25.9756 154.417 26.7041C154.03 27.4325 153.864 28.2584 153.94 29.0799C153.94 29.9299 154.65 32.6799 158.87 32.6799C163.09 32.6799 164.27 30.0199 164.27 30.0199C164.27 30.0199 164.27 31.8099 165.11 32.3299C165.911 32.6446 166.784 32.7277 167.63 32.5699V31.1299C167.314 31.1576 166.996 31.1576 166.68 31.1299L166.64 31.1499ZM163.85 27.8999C163.733 28.4323 163.486 28.9272 163.13 29.3399C161.978 30.3721 160.477 30.9295 158.93 30.8999C156.99 30.8999 156.12 29.8999 156.12 28.5799C156.12 27.4099 157.03 26.1099 159.46 26.0499C160.98 25.9807 162.492 26.3045 163.85 26.9899V27.9099V27.8999ZM213 31.7699C212.24 31.6999 212.22 30.5199 212.22 30.5199V23.5199C212.22 20.7099 209.48 19.3499 206.29 19.3499C204.567 19.2731 202.851 19.6163 201.29 20.3499L201.73 22.0799C203.648 21.0712 205.873 20.8145 207.97 21.3599C208.543 21.4266 209.076 21.6888 209.478 22.1022C209.881 22.5157 210.129 23.0552 210.18 23.6299V25.8999C209.683 25.6278 209.156 25.4131 208.61 25.2599C207.7 24.9899 204.54 24.5199 202.42 25.6399C201.696 26.0379 201.103 26.639 200.716 27.3692C200.329 28.0994 200.163 28.9269 200.24 29.7499C200.24 30.6099 200.95 33.3499 205.18 33.3499C209.41 33.3499 210.58 30.6799 210.58 30.6799C210.58 30.6799 210.58 32.4799 211.41 32.9999C212.208 33.3143 213.077 33.3974 213.92 33.2399V31.7599C213.615 31.795 213.306 31.7983 213 31.7699ZM210.21 28.5099C210.098 29.042 209.854 29.5373 209.5 29.9499C208.348 30.983 206.847 31.5405 205.3 31.5099C203.36 31.5099 202.49 30.5099 202.49 29.1799C202.49 28.0099 203.39 26.7099 205.83 26.6499C207.347 26.5793 208.856 26.9031 210.21 27.5899V28.5199V28.5099ZM179 12.1799V33.1099H181.37V19.1699L188.2 27.9299L195 19.1699V33.1099H197.37V12.1799L188.17 24.4299L179 12.1799ZM63.6501 12.9199C61.7703 12.7716 59.9 13.304 58.3801 14.4199C57.667 14.9688 57.0973 15.6819 56.7194 16.4986C56.3416 17.3152 56.1668 18.2111 56.2101 19.1099C56.1496 19.9737 56.3 20.8391 56.6484 21.6318C56.9969 22.4244 57.5328 23.1205 58.2101 23.6599C59.2046 24.4653 60.389 25.0023 61.6501 25.2199L60.0001 27.6399C57.9301 30.7599 56.8501 30.6899 56.4901 30.6399C55.9665 30.6007 55.4579 30.4471 55.0001 30.1899L53.8201 31.9999C54.6031 32.4719 55.4878 32.7496 56.4001 32.8099H56.6201C58.3901 32.8099 60.0201 31.5699 61.8401 28.8099C62.9201 27.1799 63.6301 26.0899 64.0501 25.4499H68.5601V32.5699H71.0001V12.9099H63.6701L63.6501 12.9199ZM68.5401 23.3899H63.2401C62.4301 23.3899 59.5201 23.2699 58.6901 20.5599C58.3778 19.7053 58.3566 18.7714 58.6297 17.9034C58.9027 17.0354 59.4548 16.2819 60.2001 15.7599C61.2369 15.1383 62.448 14.8715 63.6501 14.9999H68.5701L68.5401 23.3899ZM226.5 25.0599L228.55 24.6799C228.565 23.5834 228.244 22.5086 227.63 21.5999C226.31 19.9899 224.63 19.2499 221.85 19.3499C220.267 19.3678 218.742 19.9447 217.543 20.9786C216.345 22.0125 215.55 23.4369 215.3 24.9999C214.947 26.5004 215.123 28.0767 215.797 29.4629C216.471 30.8492 217.602 31.9607 219 32.6099C221.68 34.0199 226 33.0899 227 32.6699L228 32.2399L227.65 30.6399C226.059 31.2718 224.362 31.591 222.65 31.5799C221.66 31.6198 220.679 31.3742 219.825 30.8724C218.97 30.3707 218.278 29.634 217.83 28.7499C217.572 28.1146 217.44 27.4355 217.44 26.7499C217.333 25.8655 217.418 24.9683 217.69 24.1199C217.992 23.208 218.577 22.4162 219.36 21.8599C220.161 21.3696 221.073 21.0888 222.012 21.0434C222.95 20.9979 223.885 21.1893 224.73 21.5999C225.322 21.9084 225.807 22.3886 226.121 22.9775C226.435 23.5664 226.564 24.2366 226.49 24.8999L226.5 25.0599Z" fill="#333333"/>
	<path d="M22 44C34.1503 44 44 34.1503 44 22C44 9.84974 34.1503 0 22 0C9.84974 0 0 9.84974 0 22C0 34.1503 9.84974 44 22 44Z" fill="url(#paint0_linear)"/>
	<path d="M34.17 25.26L40 22L34.17 18.74L37.59 13L30.91 13.09L31 6.41L25.26 9.83L22 4L18.74 9.83L13 6.41L13.09 13.09L6.41 13L9.83 18.74L4 22L9.83 25.26L6.41 31L13.09 30.91L13 37.59L18.74 34.17L22 40L25.26 34.17L31 37.59L30.91 30.91L37.59 31L34.17 25.26ZM29.82 35.54L24.82 32.54L22 37.64L19.17 32.58L14.17 35.58L14.25 29.78L8.45 29.86L11.45 24.86L6.36 22L11.43 19.17L8.43 14.17L14.23 14.25L14.15 8.45L19.15 11.45L22 6.36L24.83 11.42L29.83 8.42L29.75 14.22L35.55 14.14L32.55 19.14L37.64 22L32.58 24.83L35.58 29.83L29.78 29.75L29.82 35.54ZM31 20.29C30.6657 20.1808 30.3589 20.0006 30.1007 19.7618C29.8426 19.5229 29.6391 19.2311 29.5042 18.9063C29.3693 18.5814 29.3063 18.2313 29.3194 17.8798C29.3324 17.5284 29.4214 17.1839 29.58 16.87C29.7947 16.5451 29.9238 16.1713 29.9552 15.7831C29.9867 15.395 29.9195 15.0052 29.76 14.65C29.33 13.97 28.38 13.88 27.16 14.46C26.8109 14.6295 26.4281 14.7183 26.04 14.72C25.5189 14.7197 25.0115 14.5526 24.5922 14.2431C24.1729 13.9336 23.8638 13.4979 23.71 13C23.2 11.57 22.5 11.27 22 11.27C21.5 11.27 20.8 11.57 20.29 13C20.1366 13.4896 19.8327 13.9184 19.4216 14.2254C19.0104 14.5324 18.513 14.7019 18 14.71C17.6119 14.7087 17.229 14.6198 16.88 14.45C15.66 13.87 14.71 13.97 14.28 14.64C14.1205 14.9952 14.0533 15.385 14.0848 15.7731C14.1162 16.1613 14.2453 16.5351 14.46 16.86C14.6198 17.1769 14.7085 17.5249 14.7199 17.8796C14.7313 18.2344 14.6652 18.5874 14.5262 18.9139C14.3872 19.2405 14.1786 19.5328 13.915 19.7705C13.6514 20.0081 13.3392 20.1854 13 20.29C11.57 20.8 11.27 21.5 11.27 22C11.27 22.5 11.57 23.2 13 23.71C13.3343 23.8192 13.6411 23.9994 13.8993 24.2382C14.1574 24.4771 14.3609 24.7689 14.4958 25.0937C14.6307 25.4186 14.6937 25.7687 14.6806 26.1202C14.6676 26.4716 14.5786 26.8161 14.42 27.13C14.2053 27.4549 14.0762 27.8287 14.0448 28.2169C14.0133 28.605 14.0805 28.9948 14.24 29.35C14.67 30.03 15.62 30.12 16.84 29.54C17.2022 29.3684 17.5992 29.2828 18 29.29C18.513 29.2981 19.0104 29.4676 19.4216 29.7746C19.8327 30.0816 20.1366 30.5104 20.29 31C20.8 32.43 21.5 32.73 22 32.73C22.5 32.73 23.2 32.43 23.71 31C23.8634 30.5104 24.1673 30.0816 24.5784 29.7746C24.9895 29.4676 25.487 29.2981 26 29.29C26.3881 29.292 26.7707 29.3808 27.12 29.55C28.34 30.13 29.29 30.03 29.72 29.36C29.8795 29.0048 29.9467 28.615 29.9152 28.2269C29.8838 27.8387 29.7547 27.4649 29.54 27.14C29.3802 26.8231 29.2916 26.4751 29.2801 26.1204C29.2687 25.7656 29.3348 25.4126 29.4738 25.0861C29.6128 24.7595 29.8214 24.4672 30.085 24.2295C30.3486 23.9919 30.6608 23.8146 31 23.71C32.43 23.2 32.73 22.5 32.73 22C32.73 21.5 32.39 20.8 31 20.29ZM30.6 22.58C30.1083 22.7456 29.6579 23.0146 29.279 23.369C28.9001 23.7234 28.6015 24.1549 28.4035 24.6344C28.2054 25.1139 28.1124 25.6303 28.1308 26.1487C28.1492 26.6672 28.2785 27.1757 28.51 27.64C28.85 28.35 28.79 28.64 28.76 28.71C28.7108 28.7223 28.6592 28.7223 28.61 28.71C28.2874 28.6875 27.9736 28.5953 27.69 28.44C27.1612 28.1946 26.5828 28.0748 26 28.09C25.2433 28.0926 24.5065 28.3323 23.893 28.7753C23.2796 29.2184 22.8204 29.8425 22.58 30.56C22.32 31.29 22.05 31.48 22 31.49C21.95 31.5 21.68 31.29 21.42 30.56C21.1796 29.8425 20.7204 29.2184 20.107 28.7753C19.4935 28.3323 18.7567 28.0926 18 28.09C17.4351 28.0933 16.8781 28.2231 16.37 28.47C16.0864 28.6253 15.7726 28.7175 15.45 28.74C15.4007 28.7515 15.3493 28.7515 15.3 28.74C15.3 28.74 15.21 28.38 15.55 27.67C15.7815 27.2057 15.9108 26.6972 15.9292 26.1787C15.9476 25.6603 15.8546 25.1439 15.6565 24.6644C15.4585 24.1849 15.1599 23.7534 14.781 23.399C14.4021 23.0446 13.9517 22.7756 13.46 22.61C12.72 22.35 12.53 22.08 12.53 22.03C12.53 21.98 12.72 21.71 13.46 21.45C13.9517 21.2844 14.4021 21.0154 14.781 20.661C15.1599 20.3066 15.4585 19.8751 15.6565 19.3956C15.8546 18.9161 15.9476 18.3997 15.9292 17.8813C15.9108 17.3628 15.7815 16.8543 15.55 16.39C15.21 15.68 15.27 15.39 15.3 15.32C15.3493 15.3081 15.4007 15.3081 15.45 15.32C15.7724 15.3432 16.0862 15.4352 16.37 15.59C16.8781 15.8369 17.4351 15.9667 18 15.97C18.7567 15.9674 19.4935 15.7277 20.107 15.2847C20.7204 14.8416 21.1796 14.2175 21.42 13.5C21.68 12.76 21.95 12.57 22 12.57C22.05 12.57 22.32 12.76 22.58 13.5C22.8305 14.2063 23.294 14.8174 23.9066 15.2491C24.5192 15.6808 25.2506 15.9117 26 15.91C26.5642 15.9102 27.1212 15.7837 27.63 15.54C27.9137 15.3849 28.2275 15.2929 28.55 15.27C28.5993 15.2581 28.6507 15.2581 28.7 15.27C28.7 15.27 28.79 15.63 28.45 16.34C28.2185 16.8043 28.0892 17.3128 28.0708 17.8313C28.0524 18.3497 28.1454 18.8661 28.3435 19.3456C28.5415 19.8251 28.8401 20.2566 29.219 20.611C29.5979 20.9654 30.0483 21.2344 30.54 21.4C31.28 21.66 31.47 21.93 31.47 21.98C31.47 22.03 31.3 22.32 30.56 22.58H30.6ZM22 16.41C20.8944 16.41 19.8136 16.7378 18.8944 17.3521C17.9751 17.9663 17.2586 18.8394 16.8355 19.8608C16.4124 20.8822 16.3017 22.0062 16.5174 23.0906C16.7331 24.1749 17.2655 25.1709 18.0473 25.9527C18.829 26.7345 19.8251 27.2669 20.9094 27.4826C21.9938 27.6983 23.1178 27.5876 24.1392 27.1645C25.1606 26.7414 26.0337 26.0249 26.6479 25.1056C27.2622 24.1864 27.59 23.1056 27.59 22C27.5874 20.5183 26.9976 19.0979 25.9498 18.0502C24.9021 17.0024 23.4817 16.4126 22 16.41ZM22 26.41C21.1206 26.41 20.261 26.1488 19.5302 25.6596C18.7994 25.1704 18.2303 24.4752 17.8952 23.6621C17.56 22.8491 17.4739 21.9548 17.6476 21.0927C17.8214 20.2306 18.2473 19.4396 18.8712 18.8198C19.4952 18.2001 20.2891 17.7796 21.1523 17.6117C22.0156 17.4438 22.9092 17.536 23.72 17.8766C24.5308 18.2173 25.2221 18.7911 25.7064 19.5251C26.1906 20.2592 26.4459 21.1206 26.44 22C26.4374 23.1768 25.9687 24.3045 25.1366 25.1366C24.3045 25.9687 23.1768 26.4374 22 26.44V26.41Z" fill="white"/>
	<defs>
		<linearGradient id="paint0_linear" x1="21.96" y1="0.13" x2="22.04" y2="44.13" gradientUnits="userSpaceOnUse">
			<stop stop-color="#F39440"/>
			<stop offset="1" stop-color="#E7680B"/>
		</linearGradient>
	</defs>
</svg>
